<?xml version="1.0" encoding="utf-8"?>
<!-- Generator: Adobe Illustrator 24.1.0, SVG Export Plug-In . SVG Version: 6.00 Build 0)  -->
<svg version="1.1" id="Capa_1" xmlns="http://www.w3.org/2000/svg" xmlns:xlink="http://www.w3.org/1999/xlink" x="0px" y="0px"
	 viewBox="0 0 64 64" style="enable-background:new 0 0 64 64;" xml:space="preserve">
<style type="text/css">
	.st0{fill:none;stroke:#FFFFFF;stroke-width:2;stroke-linecap:round;stroke-miterlimit:10;}
	.st1{fill:none;stroke:#FFFFFF;stroke-width:3;stroke-linejoin:round;}
</style>
<g>
	<line class="st0" x1="32.1" y1="49" x2="31.9" y2="50"/>
	<line class="st0" x1="26.1" y1="49" x2="25.9" y2="50"/>
	<line class="st0" x1="38.1" y1="49" x2="37.9" y2="50"/>
</g>
<path class="st1" d="M46.5,31.5h-0.3c1.4-5.6-2.1-11.3-7.7-12.7c-4.4-1.1-9,0.8-11.4,4.7c-3.3-2-7.6-0.9-9.6,2.5
	c-0.6,1.1-1,2.3-1,3.5c0,0.4,0,0.8,0.1,1.1c-4.1,0.8-6.7,4.7-5.9,8.8c0.7,3.5,3.7,6,7.3,6.1c0.2,0,0.3,0,0.5,0l0,0h28
	c3.9,0,7-3.1,7-7S50.4,31.5,46.5,31.5z"/>
</svg>
