<?xml version="1.0" encoding="utf-8"?>
<!-- Generator: Adobe Illustrator 24.1.0, SVG Export Plug-In . SVG Version: 6.00 Build 0)  -->
<svg version="1.1" id="Capa_1" xmlns="http://www.w3.org/2000/svg" xmlns:xlink="http://www.w3.org/1999/xlink" x="0px" y="0px"
	 viewBox="0 0 64 64" style="enable-background:new 0 0 64 64;" xml:space="preserve">
<style type="text/css">
	.st0{fill:#FFFFFF;}
	.st1{fill:none;stroke:#FFFFFF;stroke-width:2;stroke-linecap:round;stroke-miterlimit:10;}
	.st2{fill:none;stroke:#FFFFFF;stroke-width:3;stroke-linejoin:round;}
</style>
<path class="st0" d="M19.2,20.3c1.4,0,2.6,0.7,3.3,1.7c0.1,0,0.2,0,0.3,0c0.5-0.1,1-0.2,1.5-0.2c0.1,0,0.3,0,0.4,0
	c-0.9-2.1-3-3.6-5.5-3.6c-3.3,0-5.9,2.7-5.9,6c0,2,1,3.7,2.5,4.7c0.1-0.7,0.3-1.4,0.7-2c-0.8-0.7-1.2-1.7-1.2-2.8
	C15.3,22.1,17,20.4,19.2,20.3z"/>
<line class="st1" x1="19.2" y1="16" x2="19.2" y2="12.8"/>
<line class="st1" x1="25.1" y1="18.4" x2="27.4" y2="16.2"/>
<line class="st1" x1="11.1" y1="32.4" x2="13.3" y2="30.2"/>
<line class="st1" x1="13.3" y1="18.4" x2="11.1" y2="16.2"/>
<line class="st1" x1="10.9" y1="24.3" x2="7.7" y2="24.3"/>
<path class="st2" d="M46.5,31.5h-0.3c1.4-5.6-2.1-11.3-7.7-12.7c-4.4-1.1-9,0.8-11.4,4.7c-3.3-2-7.6-0.9-9.6,2.5
	c-0.6,1.1-1,2.3-1,3.5c0,0.4,0,0.8,0.1,1.1c-4.1,0.8-6.7,4.7-5.9,8.8c0.7,3.5,3.7,6,7.3,6.1c0.2,0,0.3,0,0.5,0l0,0h28
	c3.9,0,7-3.1,7-7S50.4,31.5,46.5,31.5z"/>
<g>
	<path class="st0" d="M32.3,47.2l0.3,0.8c0,0.2,0.2,0.2,0.4,0.2c0,0,0,0,0,0l0.8-0.4c0.1-0.1,0.3,0,0.4,0.1c0,0.1,0,0.2,0,0.3
		L33.8,49c-0.1,0.1,0,0.3,0.1,0.4c0,0,0,0,0,0l0.8,0.3c0.2,0.1,0.2,0.2,0.2,0.4c0,0.1-0.1,0.2-0.2,0.2L34,50.6
		c-0.2,0-0.2,0.2-0.2,0.4c0,0,0,0,0,0l0.4,0.8c0.1,0.1,0,0.3-0.1,0.4c-0.1,0-0.2,0-0.3,0L33,51.8c-0.1-0.1-0.3,0-0.4,0.1
		c0,0,0,0,0,0l-0.3,0.8C32.2,53,32.1,53,31.9,53c-0.1,0-0.1-0.1-0.2-0.2L31.4,52c0-0.2-0.2-0.2-0.4-0.2c0,0,0,0,0,0l-0.8,0.4
		c-0.1,0.1-0.3,0-0.4-0.1c0-0.1,0-0.2,0-0.3l0.4-0.8c0.1-0.1,0-0.3-0.1-0.4c0,0,0,0,0,0l-0.8-0.3C29,50.2,29,50.1,29,49.9
		c0-0.1,0.1-0.2,0.2-0.2l0.8-0.3c0.2,0,0.2-0.2,0.2-0.4c0,0,0,0,0,0l-0.4-0.8c-0.1-0.1,0-0.3,0.1-0.4c0.1,0,0.2,0,0.3,0l0.8,0.4
		c0.1,0.1,0.3,0,0.4-0.1c0,0,0,0,0,0l0.3-0.8c0.1-0.2,0.2-0.2,0.4-0.2C32.2,47.1,32.3,47.1,32.3,47.2z"/>
	<path class="st0" d="M39.3,47.2l0.3,0.8c0,0.2,0.2,0.2,0.4,0.2c0,0,0,0,0,0l0.8-0.4c0.1-0.1,0.3,0,0.4,0.1c0,0.1,0,0.2,0,0.3
		L40.8,49c-0.1,0.1,0,0.3,0.1,0.4c0,0,0,0,0,0l0.8,0.3c0.2,0.1,0.2,0.2,0.2,0.4c0,0.1-0.1,0.2-0.2,0.2L41,50.6
		c-0.2,0-0.2,0.2-0.2,0.4c0,0,0,0,0,0l0.4,0.8c0.1,0.1,0,0.3-0.1,0.4c-0.1,0-0.2,0-0.3,0L40,51.8c-0.1-0.1-0.3,0-0.4,0.1
		c0,0,0,0,0,0l-0.3,0.8C39.2,53,39.1,53,38.9,53c-0.1,0-0.1-0.1-0.2-0.2L38.4,52c0-0.2-0.2-0.2-0.4-0.2c0,0,0,0,0,0l-0.8,0.4
		c-0.1,0.1-0.3,0-0.4-0.1c0-0.1,0-0.2,0-0.3l0.4-0.8c0.1-0.1,0-0.3-0.1-0.4c0,0,0,0,0,0l-0.8-0.3C36,50.2,36,50.1,36,49.9
		c0-0.1,0.1-0.2,0.2-0.2l0.8-0.3c0.2,0,0.2-0.2,0.2-0.4c0,0,0,0,0,0l-0.4-0.8c-0.1-0.1,0-0.3,0.1-0.4c0.1,0,0.2,0,0.3,0l0.8,0.4
		c0.1,0.1,0.3,0,0.4-0.1c0,0,0,0,0,0l0.3-0.8c0.1-0.2,0.2-0.2,0.4-0.2C39.2,47.1,39.3,47.1,39.3,47.2z"/>
	<path class="st0" d="M25.3,47.2l0.3,0.8c0,0.2,0.2,0.2,0.4,0.2c0,0,0,0,0,0l0.8-0.4c0.1-0.1,0.3,0,0.4,0.1c0,0.1,0,0.2,0,0.3
		L26.8,49c-0.1,0.1,0,0.3,0.1,0.4c0,0,0,0,0,0l0.8,0.3c0.2,0.1,0.2,0.2,0.2,0.4c0,0.1-0.1,0.2-0.2,0.2L27,50.6
		c-0.2,0-0.2,0.2-0.2,0.4c0,0,0,0,0,0l0.4,0.8c0.1,0.1,0,0.3-0.1,0.4c-0.1,0-0.2,0-0.3,0L26,51.8c-0.1-0.1-0.3,0-0.4,0.1
		c0,0,0,0,0,0l-0.3,0.8C25.2,53,25.1,53,24.9,53c-0.1,0-0.1-0.1-0.2-0.2L24.4,52c0-0.2-0.2-0.2-0.4-0.2c0,0,0,0,0,0l-0.8,0.4
		c-0.1,0.1-0.3,0-0.4-0.1c0-0.1,0-0.2,0-0.3l0.4-0.8c0.1-0.1,0-0.3-0.1-0.4c0,0,0,0,0,0l-0.8-0.3C22,50.2,22,50.1,22,49.9
		c0-0.1,0.1-0.2,0.2-0.2l0.8-0.3c0.2,0,0.2-0.2,0.2-0.4c0,0,0,0,0,0l-0.4-0.8c-0.1-0.1,0-0.3,0.1-0.4c0.1,0,0.2,0,0.3,0l0.8,0.4
		c0.1,0.1,0.3,0,0.4-0.1c0,0,0,0,0,0l0.3-0.8c0.1-0.2,0.2-0.2,0.4-0.2C25.2,47.1,25.3,47.1,25.3,47.2z"/>
</g>
</svg>
