<?xml version="1.0" encoding="utf-8"?>
<!-- Generator: Adobe Illustrator 24.1.0, SVG Export Plug-In . SVG Version: 6.00 Build 0)  -->
<svg version="1.1" id="Capa_1" xmlns="http://www.w3.org/2000/svg" xmlns:xlink="http://www.w3.org/1999/xlink" x="0px" y="0px"
	 viewBox="0 0 64 64" style="enable-background:new 0 0 64 64;" xml:space="preserve">
<style type="text/css">
	.st0{fill:#FFFFFF;}
	.st1{fill:none;stroke:#FFFFFF;stroke-width:2;stroke-linecap:round;stroke-miterlimit:10;}
	.st2{fill:none;stroke:#FFFFFF;stroke-width:3;stroke-linejoin:round;}
</style>
<path class="st0" d="M16.2,26.8c-0.6-0.7-0.9-1.6-0.9-2.5c0-2.2,1.8-3.9,3.9-3.9c1.4,0,2.6,0.7,3.3,1.9c1,0.1,1.9,0.4,2.5,0.9
	c-0.6-2.7-3-4.7-5.9-4.7c-3.3,0-5.9,2.7-5.9,6c0,1.8,0.9,3.5,2.2,4.6C15.6,28.2,15.8,27.5,16.2,26.8z"/>
<line class="st1" x1="19.2" y1="16" x2="19.2" y2="12.8"/>
<line class="st1" x1="25.1" y1="18.4" x2="27.4" y2="16.2"/>
<line class="st1" x1="11.1" y1="32.4" x2="13.3" y2="30.2"/>
<line class="st1" x1="13.3" y1="18.4" x2="11.1" y2="16.2"/>
<line class="st1" x1="10.9" y1="24.3" x2="7.7" y2="24.3"/>
<path class="st2" d="M46.5,31.5h-0.3c1.4-5.6-2.1-11.3-7.7-12.7c-4.4-1.1-9,0.8-11.4,4.7c-3.3-2-7.6-0.9-9.6,2.5
	c-0.6,1.1-1,2.3-1,3.5c0,0.4,0,0.8,0.1,1.1c-4.1,0.8-6.7,4.7-5.9,8.8c0.7,3.5,3.7,6,7.3,6.1c0.2,0,0.3,0,0.5,0l0,0h28
	c3.9,0,7-3.1,7-7S50.4,31.5,46.5,31.5z"/>
<g>
	<line class="st1" x1="32.1" y1="49" x2="31.9" y2="50"/>
	<line class="st1" x1="26.1" y1="49" x2="25.9" y2="50"/>
	<line class="st1" x1="38.1" y1="49" x2="37.9" y2="50"/>
</g>
</svg>
