<?xml version="1.0" encoding="utf-8"?>
<!-- Generator: Adobe Illustrator 24.1.0, SVG Export Plug-In . SVG Version: 6.00 Build 0)  -->
<svg version="1.1" id="Capa_1" xmlns="http://www.w3.org/2000/svg" xmlns:xlink="http://www.w3.org/1999/xlink" x="0px" y="0px"
	 viewBox="0 0 64 64" style="enable-background:new 0 0 64 64;" xml:space="preserve">
<style type="text/css">
	.st0{fill:#FFFFFF;}
	.st1{fill:none;stroke:#FFFFFF;stroke-width:3;stroke-linecap:round;stroke-miterlimit:10;}
</style>
<path class="st0" d="M32,23.4c4.8,0,8.6,3.9,8.6,8.6s-3.9,8.6-8.6,8.6s-8.6-3.9-8.6-8.6l0,0C23.4,27.2,27.2,23.4,32,23.4 M32,20.4
	c-6.4,0-11.6,5.2-11.6,11.6S25.6,43.6,32,43.6S43.6,38.4,43.6,32l0,0C43.6,25.6,38.4,20.4,32,20.4z"/>
<line class="st1" x1="32" y1="15.7" x2="32" y2="9.5"/>
<line class="st1" x1="32" y1="54.5" x2="32" y2="48.3"/>
<line class="st1" x1="43.5" y1="20.5" x2="47.9" y2="16.1"/>
<line class="st1" x1="16.1" y1="47.9" x2="20.5" y2="43.5"/>
<line class="st1" x1="20.5" y1="20.5" x2="16.1" y2="16.1"/>
<line class="st1" x1="47.9" y1="47.9" x2="43.5" y2="43.5"/>
<line class="st1" x1="15.7" y1="32" x2="9.5" y2="32"/>
<line class="st1" x1="54.5" y1="32" x2="48.3" y2="32"/>
</svg>
