<?xml version="1.0" encoding="utf-8"?>
<!-- Generator: Adobe Illustrator 24.1.0, SVG Export Plug-In . SVG Version: 6.00 Build 0)  -->
<svg version="1.1" xmlns="http://www.w3.org/2000/svg" xmlns:xlink="http://www.w3.org/1999/xlink" x="0px" y="0px"
	 viewBox="0 0 64 64" style="enable-background:new 0 0 64 64;" xml:space="preserve">
<style type="text/css">
	.st0{fill:none;}
	.st1{fill:#FFFFFF;}
	.st2{fill:none;stroke:#FFFFFF;stroke-width:2;stroke-linecap:round;stroke-miterlimit:10;}
	.st3{fill:none;stroke:#FFFFFF;stroke-width:3;stroke-linejoin:round;}
</style>
<g id="Capa_2">
</g>
<g id="Capa_1">
	<polygon class="st0" points="10.6,34.2 6.7,30.8 4.7,24.8 5.7,17.8 9.7,12.8 14.7,9.8 20.7,9.8 25.7,10.8 28.7,13.8 31.3,18.1 
		26.7,22.8 21.7,22.8 16.7,27.8 16.7,30.8 	"/>
	<path class="st1" d="M16.8,27.4c-0.9-0.7-1.5-1.8-1.5-3.1c0-2.2,1.8-3.9,3.9-3.9c1.7,0,3.2,1.1,3.7,2.6c0,0,0.1,0,0.1,0
		c0.8,0,1.5,0.2,2.1,0.4c-0.5-2.9-2.9-5-5.9-5c-3.3,0-5.9,2.7-5.9,6c0,2.3,1.3,4.2,3.2,5.2C16.5,28.8,16.6,28.1,16.8,27.4z"/>
	<line class="st2" x1="19.2" y1="16" x2="19.2" y2="12.8"/>
	<line class="st2" x1="25.1" y1="18.4" x2="27.4" y2="16.2"/>
	<line class="st2" x1="11.1" y1="32.4" x2="13.3" y2="30.2"/>
	<line class="st2" x1="13.3" y1="18.4" x2="11.1" y2="16.2"/>
	<line class="st2" x1="10.9" y1="24.3" x2="7.7" y2="24.3"/>
	<path class="st3" d="M46.5,31.5h-0.3c1.4-5.6-2.1-11.3-7.7-12.7c-4.4-1.1-9,0.8-11.4,4.7c-3.3-2-7.6-0.9-9.6,2.5
		c-0.6,1.1-1,2.3-1,3.5c0,0.4,0,0.8,0.1,1.1c-4.1,0.8-6.7,4.7-5.9,8.8c0.7,3.5,3.7,6,7.3,6.1c0.2,0,0.3,0,0.5,0l0,0h28
		c3.9,0,7-3.1,7-7S50.4,31.5,46.5,31.5z"/>
</g>
</svg>
